# xmcd
#
# Track frame offsets:
#	150
#	11972
#	22840
#	37802
#	51305
#	58907
#	71292
#	78430
#	92772
#	96790
#	109990
#
# Disc length: 1813 seconds
#
# Revision: 0
# Processed by: cddbd v1.5.1PL0 Copyright (c) Steve Scherf et al.
# Submitted via: dBpowerAMP V4.0
#
DISCID=8807130b
DTITLE=Burnier and Cartier - Burnier and Cartier
DYEAR=1968
DGENRE=Blues
TTITLE0=Minha mãe nâo sabe de mim
TTITLE1=D. João
TTITLE2=Recreio
TTITLE3=Elogio da Loucura
TTITLE4=À Beira do Nada
TTITLE5=Catarina Canguru
TTITLE6=Dia Ferido
TTITLE7=Lenda das Amazonas
TTITLE8=Ecoline
TTITLE9=Sítio Azul
TTITLE10=Pedra Pintada
EXTD=
EXTT0=
EXTT1=
EXTT2=
EXTT3=
EXTT4=
EXTT5=
EXTT6=
EXTT7=
EXTT8=
EXTT9=
EXTT10=
PLAYORDER=
